<?xml version="1.0" encoding="UTF-8" standalone="no"?>
<!DOCTYPE svg PUBLIC "-//W3C//DTD SVG 1.1//EN" "http://www.w3.org/Graphics/SVG/1.1/DTD/svg11.dtd">
<svg width="100%" height="100%" viewBox="0 0 9 5" version="1.1" xmlns="http://www.w3.org/2000/svg" xmlns:xlink="http://www.w3.org/1999/xlink" xml:space="preserve" xmlns:serif="http://www.serif.com/" style="fill-rule:evenodd;clip-rule:evenodd;stroke-linejoin:round;stroke-miterlimit:2;">
    <g transform="matrix(1,0,0,1,-431.564,-329.112)">
        <g transform="matrix(-1.3349,-1.63478e-16,1.56033e-16,-1.27411,722.573,827.908)">
            <path d="M214.273,388.845C214.459,388.629 214.723,388.506 215,388.506C215.277,388.506 215.541,388.629 215.727,388.845C216.08,389.255 216.511,389.756 216.903,390.211C217.095,390.435 217.144,390.757 217.027,391.033C216.91,391.308 216.649,391.486 216.361,391.486C215.515,391.486 214.485,391.486 213.639,391.486C213.351,391.486 213.09,391.308 212.973,391.033C212.856,390.757 212.905,390.435 213.097,390.211C213.489,389.756 213.92,389.255 214.273,388.845Z" style="fill:rgb(47,53,70);"/>
        </g>
    </g>
</svg>
